<svg width="25" height="25" viewBox="0 0 25 25" fill="none" xmlns="http://www.w3.org/2000/svg">
<path d="M9.24805 2.11719L8.25684 2.61426C8.25684 4.17822 8.2959 6.9043 8.93555 9.00879C11.7822 9.70215 13.2178 9.70215 16.0645 9.00879C16.7139 6.90918 16.7432 4.7832 16.748 2.61426L15.752 2.11719C15.5371 2.39746 15.1807 2.85156 14.6875 3.41455C14.3359 3.81299 13.9648 4.21338 13.6084 4.52783C13.4326 4.68506 13.2617 4.8208 13.0908 4.92676C12.915 5.03418 12.7441 5.12695 12.5 5.12695C12.2559 5.12695 12.085 5.03418 11.9092 4.92676C11.7383 4.8208 11.5674 4.68506 11.3916 4.52783C11.0352 4.21338 10.6641 3.81299 10.3125 3.41455C9.81934 2.85156 9.46289 2.39746 9.24805 2.11719ZM8.82812 9.88281L2.79785 21.9482C2.81152 22.002 2.83691 22.0605 2.90332 22.1338C3.00098 22.2461 3.17578 22.3828 3.42139 22.5098C3.91357 22.7734 4.67725 23.0127 5.60547 23.2031C7.46094 23.584 9.98535 23.7793 12.5 23.7793C15.0146 23.7793 17.5391 23.584 19.3945 23.2031C20.3223 23.0127 21.0889 22.7734 21.5771 22.5098C21.8262 22.3828 21.9971 22.2461 22.0947 22.1338C22.1631 22.0605 22.1875 22.002 22.2022 21.9482L16.1719 9.88281C13.3398 10.5615 11.6602 10.5615 8.82812 9.88281Z" fill="#040101"/>
</svg>
