<svg width="24" height="22" viewBox="0 0 24 22" fill="none" xmlns="http://www.w3.org/2000/svg">
<path d="M22.278 15.3584C21.3099 14.4654 18.558 12.7923 16.7544 12.7923C16.3367 12.7923 15.972 12.8757 15.6736 13.0484C14.7917 13.5544 14.0888 13.9474 13.7507 13.9474C13.565 13.9474 13.3661 13.7985 12.9284 13.4592L12.8555 13.3996C11.642 12.453 11.3834 12.2089 10.9126 11.7683L10.7933 11.6552C10.7071 11.5778 10.6341 11.5063 10.5612 11.4408C10.1501 11.0598 9.85169 10.7859 8.79738 9.7142L8.75096 9.66657C8.24702 9.15454 7.91547 8.82113 7.89558 8.57702C7.87569 8.33887 8.10777 7.95187 8.69792 7.23145C9.41405 6.36219 9.44058 5.2905 8.78412 4.04615C8.26028 3.06377 7.40489 2.12306 6.64897 1.29548L6.58266 1.22403C5.93284 0.509574 5.17692 0.152344 4.33479 0.152344C3.39984 0.152344 2.62402 0.604835 2.21291 0.842989C2.17975 0.86085 2.1466 0.884665 2.11345 0.902527C1.19175 1.42646 0.522033 2.14688 0.270059 2.8792C-0.107901 3.98066 -0.359875 5.40958 1.45036 8.38054C3.01525 10.9526 4.43426 12.6792 6.68876 14.7571C8.81064 16.71 9.75223 17.3411 11.8608 18.7104C14.2082 20.2346 16.4627 21.1098 18.0408 21.1098C19.5063 21.1098 20.66 21.1098 22.3045 19.3296C24.0285 17.4601 23.3124 16.317 22.278 15.3584Z" fill="#040101"/>
</svg>
