<svg width="23" height="24" viewBox="0 0 23 24" fill="none" xmlns="http://www.w3.org/2000/svg">
<path d="M11.4819 23.7286C11.1484 23.7286 10.8149 23.6775 10.4813 23.5751C10.1478 23.4728 9.85004 23.3193 9.58799 23.1147C8.03952 21.8868 6.66971 20.6896 5.47858 19.5232C4.28744 18.3567 3.29308 17.2262 2.4955 16.1318C1.69696 15.0365 1.08948 13.9826 0.673058 12.97C0.256637 11.9574 0.04795 10.9903 0.0469971 10.0685C0.0469971 6.99887 1.19668 4.55336 3.49605 2.73201C5.79542 0.910672 8.45737 0 11.4819 0C14.5074 0 17.1698 0.910672 19.4692 2.73201C21.7685 4.55336 22.9178 6.99887 22.9168 10.0685C22.9168 10.9895 22.7081 11.9566 22.2907 12.97C21.8734 13.9834 21.2659 15.0373 20.4683 16.1318C19.6707 17.2262 18.6764 18.3567 17.4852 19.5232C16.2941 20.6896 14.9243 21.8868 13.3758 23.1147C13.1138 23.3193 12.816 23.4728 12.4825 23.5751C12.1489 23.6775 11.8154 23.7286 11.4819 23.7286ZM11.4819 12.2787C12.268 12.2787 12.9413 12.0385 13.5016 11.558C14.0619 11.0775 14.3416 10.4991 14.3406 9.82298C14.3406 9.14765 14.0605 8.56932 13.5002 8.08799C12.9398 7.60667 12.2671 7.36641 11.4819 7.36723C10.6958 7.36723 10.0225 7.60789 9.46221 8.08922C8.9019 8.57055 8.62222 9.14846 8.62317 9.82298C8.62317 10.4983 8.90333 11.0766 9.46364 11.558C10.024 12.0393 10.6967 12.2795 11.4819 12.2787Z" fill="#F10909"/>
</svg>
